<?xml version="1.0" encoding="utf-8"?>
<!-- Generator: Adobe Illustrator 23.0.1, SVG Export Plug-In . SVG Version: 6.00 Build 0)  -->
<svg version="1.1" id="Camada_1" xmlns="http://www.w3.org/2000/svg" xmlns:xlink="http://www.w3.org/1999/xlink" x="0px" y="0px"
	 viewBox="0 0 26 17" style="enable-background:new 0 0 26 17;" xml:space="preserve">
<style type="text/css">
	.st0{fill:none;}
	.st1{fill:#B4B4B4;}
</style>
<g id="Prancheta_1">
	<g id="Grupo_86" transform="translate(3.125 8.281)">
		<g id="Caminho_34">
			<path class="st0" d="M-1.1-8.3h22c1.1,0,2,0.9,2,2v13c0,1.1-0.9,2-2,2h-22c-1.1,0-2-0.9-2-2v-13C-3.1-7.4-2.2-8.3-1.1-8.3z"/>
			<path class="st1" d="M-1.1-7.3c-0.6,0-1,0.4-1,1v13c0,0.6,0.4,1,1,1h22c0.6,0,1-0.4,1-1v-13c0-0.6-0.4-1-1-1H-1.1 M-1.1-8.3h22
				c1.1,0,2,0.9,2,2v13c0,1.1-0.9,2-2,2h-22c-1.1,0-2-0.9-2-2v-13C-3.1-7.4-2.2-8.3-1.1-8.3z"/>
		</g>
		<rect id="Retângulo_66" x="-3.1" y="-4.3" class="st1" width="26" height="3"/>
		<rect id="Retângulo_67" x="14.9" y="0.7" class="st1" width="5" height="3"/>
	</g>
</g>
</svg>
