<?xml version="1.0" encoding="utf-8"?>
<!-- Generator: Adobe Illustrator 23.0.1, SVG Export Plug-In . SVG Version: 6.00 Build 0)  -->
<svg version="1.1" id="Camada_1" xmlns="http://www.w3.org/2000/svg" xmlns:xlink="http://www.w3.org/1999/xlink" x="0px" y="0px"
	 viewBox="0 0 48 48.1" style="enable-background:new 0 0 48 48.1;" xml:space="preserve">
<style type="text/css">
	.st0{clip-path:url(#SVGID_2_);}
	.st1{fill:#23C6A3;}
	.st2{fill:#FFFFFF;}
</style>
<g>
	<defs>
		<rect id="SVGID_1_" x="-16" y="-23.1" width="80" height="93"/>
	</defs>
	<clipPath id="SVGID_2_">
		<use xlink:href="#SVGID_1_"  style="overflow:visible;"/>
	</clipPath>
	<g id="Licença_4" class="st0">
		<g id="Grupo_119" transform="translate(16 22.961)">
			<ellipse id="Elipse_5" class="st1" cx="8.1" cy="1.1" rx="24.1" ry="24.1"/>
			<g id="_003-power" transform="translate(13.341 10.519)">
				<path id="Caminho_46" class="st2" d="M-1.5-20.2v3.4c4.2,1.8,6.1,6.6,4.4,10.7C1.1-2-3.7-0.1-7.8-1.8c-4.2-1.8-6.1-6.6-4.4-10.7
					c0.8-2,2.4-3.5,4.4-4.4v-3.4c-6,1.8-9.5,8.1-7.7,14.1c1.8,6,8.1,9.5,14.1,7.7S8-6.5,6.3-12.5C5.2-16.3,2.3-19.2-1.5-20.2z"/>
				<rect id="Retângulo_85" x="-6.2" y="-23.1" class="st2" width="3.2" height="9.1"/>
			</g>
		</g>
	</g>
</g>
</svg>
