<?xml version="1.0" encoding="utf-8"?>
<!-- Generator: Adobe Illustrator 23.0.1, SVG Export Plug-In . SVG Version: 6.00 Build 0)  -->
<svg version="1.1" id="Camada_1" xmlns="http://www.w3.org/2000/svg" xmlns:xlink="http://www.w3.org/1999/xlink" x="0px" y="0px"
	 viewBox="0 0 48.9 48.1" style="enable-background:new 0 0 48.9 48.1;" xml:space="preserve">
<style type="text/css">
	.st0{clip-path:url(#SVGID_2_);}
	.st1{fill:#23C6A3;}
	.st2{fill:#FFFFFF;stroke:#FFFFFF;}
</style>
<g>
	<defs>
		<rect id="SVGID_1_" x="-15.6" y="-23.1" width="80" height="93"/>
	</defs>
	<clipPath id="SVGID_2_">
		<use xlink:href="#SVGID_1_"  style="overflow:visible;"/>
	</clipPath>
	<g id="Licença_1" class="st0">
		<g id="Grupo_116" transform="translate(16 23)">
			<ellipse id="Elipse_2" class="st1" cx="8.5" cy="1" rx="24.1" ry="24.1"/>
			<g id="_002-star" transform="translate(9.373 10.712)">
				<path id="Caminho_45" class="st2" d="M12.7-12.9c-0.1-0.3-0.3-0.5-0.6-0.5l-8.9-1.3l-4-8c-0.1-0.3-0.4-0.4-0.7-0.4l0,0
					c-0.3,0-0.6,0.2-0.7,0.4l-3.9,8l-8.9,1.3c-0.3,0-0.5,0.3-0.6,0.5c-0.1,0.3,0,0.6,0.2,0.8l6.4,6.2l-1.5,8.8
					c-0.1,0.4,0.2,0.8,0.6,0.9c0,0,0.1,0,0.1,0c0.1,0,0.3,0,0.4-0.1l7.9-4.2l7.9,4.1c0.1,0.1,0.2,0.1,0.4,0.1l0,0
					c0.4,0,0.8-0.4,0.8-0.8c0-0.1,0-0.1,0-0.2L6.1-5.8l6.4-6.3C12.8-12.2,12.8-12.6,12.7-12.9z M4.8-6.6C4.6-6.4,4.5-6.2,4.5-5.9
					l1.3,7.6L-1-1.9C-1.2-2-1.5-2-1.7-1.9l-6.9,3.6l1.3-7.7c0-0.3,0-0.5-0.2-0.7l-5.6-5.4l7.7-1.1c0.3,0,0.5-0.2,0.6-0.4l3.4-7
					l3.5,7c0.1,0.2,0.3,0.4,0.6,0.4l7.7,1.1L4.8-6.6z"/>
			</g>
		</g>
	</g>
</g>
</svg>
