<?xml version="1.0" encoding="utf-8"?>
<!-- Generator: Adobe Illustrator 23.0.1, SVG Export Plug-In . SVG Version: 6.00 Build 0)  -->
<svg version="1.1" id="Camada_1" xmlns="http://www.w3.org/2000/svg" xmlns:xlink="http://www.w3.org/1999/xlink" x="0px" y="0px"
	 viewBox="0 0 134 25.5" style="enable-background:new 0 0 134 25.5;" xml:space="preserve">
<style type="text/css">
	.st0{fill:#231F20;}
</style>
<g id="Grupo_69" transform="translate(0 12.48)">
	<path id="Caminho_38" class="st0" d="M60.3,0.3c0,5.1-3.1,7.5-7,7.5h-2.4v-3h2.2c2.3,0,3.9-1.3,3.9-4.4c0-3.1-1.5-4.7-4-4.7
		c-2.4,0-4.1,1.5-4.1,4.6V13h-3.2V-7h3.2v1.7h0.5c1-1.4,2.6-2.1,4.3-2.1C57.3-7.4,60.3-4.8,60.3,0.3 M39-1l-2.2-0.2
		c-1.7-0.2-2.6-0.6-2.6-1.6c0-1.2,1.1-1.8,2.8-1.8c1.7,0,2.8,0.8,2.9,1.9H43c-0.1-2.9-2.4-4.7-5.9-4.7c-3.6,0-6,1.9-6,4.7
		c0,2.3,1.5,3.8,4.8,4.2l2.2,0.2c1.3,0.1,2.2,0.4,2.2,1.7c0,1.1-0.8,2-3,2c-2,0-3-0.9-3.4-2.1h-3.4c0.3,2.8,2.7,5,6.7,5
		c3.8,0,6.3-2,6.3-4.9C43.5,0.6,41.8-0.7,39-1 M72.8,3.2c-0.6,1.3-2,2.1-3.4,2.1c-2.4,0-4.1-1.5-4.1-4.9c0-3.2,1.6-4.9,4.2-4.9
		c1.9-0.2,3.5,1.2,3.7,3.1c0,0.1,0,0.2,0,0.3h-5.8v2.3h9v-1.5c0-4.3-2.8-7-6.9-7c-3.8,0-7.4,2.6-7.4,7.8s3.6,7.8,7.4,7.8
		c3.1,0.1,5.9-2,6.7-5L72.8,3.2z M21.9-7.4c-3.5,0-6.2,1.8-6.5,4.7h3.5c0.2-1,1.2-1.8,3-1.8c2.3,0,3.1,1.2,3.1,2.7v5.1
		c-1.1,1.3-2.7,2.2-4.4,2.2c-1.6,0-2.7-0.8-2.7-2.2c0-1.3,0.9-2.2,2.5-2.2h2.6v-2.3h-2.7c-3.7,0-5.8,1.8-5.8,4.7
		c0,2.6,2,4.6,5.3,4.6c1.7,0,3.3-0.6,4.7-1.6h0.5v1.3h3.2v-9.9C28.3-5.8,25.8-7.4,21.9-7.4 M0,7.8h3.2v-20.3H0V7.8z M13.6-7H9.6
		L4.9-0.8v1.9l4.8,6.7h4L8.1,0.1L13.6-7z M130.4-7l-2.7,5.9c-0.6,1.2-1.1,2.4-1.4,3.7h-0.5c-0.4-1.3-0.9-2.5-1.5-3.7L121.7-7h-3.6
		l6.2,13.3l-3.1,6.7h3.5L134-7L130.4-7z M117.4-7h-3.9l-4.7,6.2v1.9l4.8,6.7h4l-5.7-7.7L117.4-7z M97.2-1L95-1.2
		c-1.7-0.2-2.6-0.6-2.6-1.6c0-1.2,1.1-1.8,2.8-1.8c1.7,0,2.8,0.8,2.9,1.9h3.1c-0.1-2.9-2.4-4.7-5.9-4.7c-3.6,0-6,1.9-6,4.7
		c0,2.3,1.5,3.8,4.8,4.2l2.2,0.2c1.3,0.1,2.2,0.4,2.2,1.7c0,1.1-0.8,2-3,2c-2,0-3-0.9-3.4-2.1h-3.4c0.3,2.8,2.7,5,6.7,5
		c3.8,0,6.3-2,6.3-4.9C101.7,0.6,99.9-0.7,97.2-1 M103.8,7.8h3.2v-20.3h-3.2V7.8z M82.5-5.3H82V-7h-3.2V7.8H82V0
		c0-2.6,1.2-4.2,3.6-4.2h2v-3.3h-1.2C84.9-7.5,83.3-6.7,82.5-5.3"/>
</g>
</svg>
