<?xml version="1.0" encoding="utf-8"?>
<!-- Generator: Adobe Illustrator 23.0.1, SVG Export Plug-In . SVG Version: 6.00 Build 0)  -->
<svg version="1.1" id="Camada_1" xmlns="http://www.w3.org/2000/svg" xmlns:xlink="http://www.w3.org/1999/xlink" x="0px" y="0px"
	 viewBox="0 0 63.4 29.7" style="enable-background:new 0 0 63.4 29.7;" xml:space="preserve">
<style type="text/css">
	.st0{fill:#4898C9;}
</style>
<g>
	<g id="logo_Linktel">
		<g id="Grupo_19" transform="translate(-176.451 5.312)">
			<g id="Grupo_6" transform="translate(185.32 12.851)">
				<path id="Caminho_7" class="st0" d="M-2.5,2.8c-1.7,0-3.1-1.4-3.1-3.1v-15.1c0-0.4-0.4-0.7-0.8-0.7c-0.4,0-0.7,0.3-0.7,0.7v15.1
					c0,2.5,2.1,4.6,4.6,4.6c0.4,0,0.7-0.3,0.7-0.7C-1.8,3.2-2.1,2.8-2.5,2.8L-2.5,2.8z"/>
			</g>
			<g id="Grupo_7" transform="translate(242.825 12.851)">
				<path id="Caminho_8" class="st0" d="M-5.7,2.9c-1.7,0-3.1-1.4-3.1-3.1v-15.1c0-0.4-0.4-0.7-0.8-0.7c-0.4,0-0.7,0.3-0.7,0.7v15.1
					c0,2.5,2.1,4.6,4.6,4.6C-5.3,4.4-5,4-5,3.6C-5,3.2-5.3,2.9-5.7,2.9L-5.7,2.9z"/>
			</g>
			<g id="Grupo_8" transform="translate(196.387 20.206)">
				<path id="Caminho_9" class="st0" d="M-2.7-16.5h-5.1v12.7C-7.8-3.4-7.4-3-7-3c0.4,0,0.7-0.3,0.8-0.7c0,0,0,0,0-0.1V-15h3.6
					c1.7,0,3.1,1.4,3.1,3.1v8.1C0.4-3.4,0.8-3,1.2-3c0.4,0,0.7-0.3,0.8-0.7c0,0,0,0,0-0.1v-8.1C1.9-14.4-0.1-16.5-2.7-16.5z"/>
			</g>
			<g id="Grupo_9" transform="translate(192.679 20.175)">
				<path id="Caminho_10" class="st0" d="M-6.8-16.5c-0.4,0-0.7,0.3-0.7,0.7v0v12C-7.6-3.4-7.2-3-6.8-3c0.4,0,0.7-0.3,0.8-0.7
					c0,0,0,0,0-0.1v-12C-6.1-16.2-6.4-16.5-6.8-16.5z"/>
			</g>
			<g id="Grupo_10" transform="translate(208.505 12.851)">
				<path id="Caminho_11" class="st0" d="M-5.5-2.3l4.3-4.3c0.3-0.3,0.3-0.8,0-1c-0.3-0.3-0.7-0.3-1,0L-7-2.9v-12.4
					c0-0.4-0.4-0.7-0.8-0.7c-0.4,0-0.7,0.3-0.7,0.7V3.6c0,0.4,0.3,0.7,0.7,0.8C-7.3,4.3-7,4-7,3.6c0,0,0,0,0-0.1v-5.3l5.8,5.8
					c0.3,0.3,0.7,0.3,1,0c0.3-0.3,0.3-0.7,0-1l0,0L-5.5-2.3z"/>
			</g>
			<g id="Grupo_11" transform="translate(222.295 20.325)">
				<path id="Caminho_12" class="st0" d="M-4.6-4.6c-1.7,0-3.1-1.4-3.1-3.1v-8.5c-0.4-0.4-1-0.4-1.5,0v8.5c0,2.5,2.1,4.6,4.6,4.6
					c0.4,0,0.7-0.4,0.7-0.8C-3.9-4.3-4.2-4.6-4.6-4.6L-4.6-4.6z"/>
			</g>
			<g id="Grupo_13" transform="translate(213.778 12.851)">
				<g id="Grupo_12">
					<path id="Caminho_13" class="st0" d="M8.1-11.3c-0.2,0-0.4-0.1-0.5-0.2c-4.2-4.2-10.9-4.2-15.1,0c0,0,0,0,0,0
						c-0.3,0.3-0.8,0.3-1,0c-0.3-0.3-0.3-0.7,0-1c2.3-2.3,5.4-3.6,8.6-3.5l0,0c3.2,0,6.3,1.3,8.6,3.5c0.3,0.3,0.3,0.7,0,1
						C8.5-11.4,8.3-11.3,8.1-11.3L8.1-11.3z"/>
				</g>
			</g>
			<g id="Grupo_15" transform="translate(216.908 16.202)">
				<g id="Grupo_14">
					<path id="Caminho_14" class="st0" d="M2-12.7c-0.2,0-0.4-0.1-0.5-0.2c-2.5-2.5-6.6-2.5-9.2,0c-0.3,0.3-0.7,0.3-1,0
						c-0.3-0.3-0.3-0.7,0-1l0,0c3.1-3.1,8.1-3.1,11.2,0c0.3,0.3,0.3,0.7,0,1C2.4-12.8,2.2-12.7,2-12.7L2-12.7z"/>
				</g>
			</g>
			<g id="Grupo_16" transform="translate(192.362 16.751)">
				<circle id="Elipse_1" class="st0" cx="-6.5" cy="-15.3" r="1"/>
			</g>
			<g id="Grupo_17" transform="translate(236.316 36.461)">
				<path id="Caminho_15" class="st0" d="M-7.4-13.2c-0.2,0-0.5,0-0.7-0.1c-0.2,0.1-0.5,0.1-0.7,0.1c-0.6,0-1.1-0.3-1.1-1.2v-1.7
					c0-0.1,0-0.1,0.1-0.1h0.3c0.1,0,0.1,0,0.1,0.1v1.7c0,0.6,0.2,0.8,0.7,0.8c0.1,0,0.3,0,0.4-0.1v-2.5c0-0.1,0-0.1,0.1-0.1H-8
					c0.1,0,0.1,0,0.1,0.1v2.5c0.1,0,0.3,0.1,0.4,0.1c0.4,0,0.7-0.2,0.7-0.8v-1.7c0-0.1,0-0.1,0.1-0.1h0.3c0.1,0,0.1,0,0.1,0.1v1.7
					C-6.3-13.4-6.8-13.2-7.4-13.2z"/>
				<path id="Caminho_16" class="st0" d="M-4.8-16.7h-0.3c-0.1,0-0.1,0-0.1-0.1v-0.4c0-0.1,0-0.1,0.1-0.1h0.3c0.1,0,0.1,0,0.1,0.1
					v0.4C-4.7-16.8-4.8-16.7-4.8-16.7z M-4.8-13.2h-0.3c-0.1,0-0.1,0-0.1-0.1v-2.8c0-0.1,0-0.1,0.1-0.1h0.3c0.1,0,0.1,0,0.1,0.1v2.8
					C-4.7-13.3-4.8-13.2-4.8-13.2C-4.8-13.2-4.8-13.2-4.8-13.2L-4.8-13.2z"/>
				<path id="Caminho_17" class="st0" d="M-2.5-14.6h-1.1c-0.1,0-0.1,0-0.1-0.1c0,0,0,0,0,0v-0.2c0-0.1,0-0.1,0.1-0.1c0,0,0,0,0,0
					h1.1c0.1,0,0.1,0,0.1,0.1c0,0,0,0,0,0v0.2C-2.4-14.7-2.5-14.6-2.5-14.6C-2.5-14.6-2.5-14.6-2.5-14.6z"/>
				<path id="Caminho_18" class="st0" d="M-0.2-17h-0.5C-1-17-1-16.9-1-16.6v0.4h0.9c0.1,0,0.1,0,0.1,0.1c0,0,0,0,0,0v0.2
					c0,0.1,0,0.1-0.1,0.1c0,0,0,0,0,0H-1v2.5c0,0.1,0,0.1-0.1,0.1h-0.3c-0.1,0-0.1,0-0.1-0.1v-3.3c0-0.6,0.3-0.8,0.8-0.8
					c0.2,0,0.3,0,0.5,0c0.1,0,0.1,0,0.1,0.1v0.2C-0.1-17-0.1-17-0.2-17z"/>
				<path id="Caminho_19" class="st0" d="M1.1-16.7H0.9c-0.1,0-0.1,0-0.1-0.1v-0.4c0-0.1,0-0.1,0.1-0.1h0.3c0.1,0,0.1,0,0.1,0.1v0.4
					C1.3-16.8,1.2-16.7,1.1-16.7z M1.1-13.2H0.9c-0.1,0-0.1,0-0.1-0.1v-2.8c0-0.1,0-0.1,0.1-0.1h0.3c0.1,0,0.1,0,0.1,0.1v2.8
					C1.2-13.3,1.2-13.2,1.1-13.2C1.1-13.2,1.1-13.2,1.1-13.2L1.1-13.2z"/>
			</g>
			<g id="Grupo_18" transform="translate(230.571 20.206)">
				<path id="Caminho_20" class="st0" d="M0-9.6v-2c0-0.2,0-0.3,0-0.5c-0.3-2.7-2.6-4.6-5.3-4.3c-2.5,0.2-4.4,2.3-4.4,4.8v4
					c0,2.5,2.1,4.6,4.6,4.6c0.4,0,0.7-0.4,0.7-0.8c0-0.4-0.3-0.7-0.7-0.7c-1.7,0-3.1-1.4-3.1-3.1v-1.2H0V-9.6z M-1.4-10.3h-6.8v-1.4
					c0-1.9,1.5-3.4,3.4-3.4c1.9,0,3.4,1.5,3.4,3.4c0,0,0,0,0,0V-10.3z"/>
			</g>
		</g>
	</g>
</g>
</svg>
