<svg xmlns="http://www.w3.org/2000/svg" width="11.439" height="16.013" viewBox="0 0 11.439 16.013"><defs><style>.a{fill:#989898;}</style></defs><g transform="translate(0 0)"><path class="a" d="M70.418,6.421h-.79V4.467a4.467,4.467,0,0,0-8.934,0V6.421H59.9a.462.462,0,0,0-.462.462V15.55a.462.462,0,0,0,.462.462H70.418a.462.462,0,0,0,.462-.462V6.883A.462.462,0,0,0,70.418,6.421ZM65.881,11.7v1.845a.292.292,0,0,1-.292.292h-.857a.292.292,0,0,1-.292-.292V11.7a1.247,1.247,0,1,1,1.441,0Zm1.614-5.275H62.826V4.467a2.334,2.334,0,0,1,4.668,0Z" transform="translate(-59.441)"/></g></svg>