<?xml version="1.0" encoding="utf-8"?>
<!-- Generator: Adobe Illustrator 23.0.1, SVG Export Plug-In . SVG Version: 6.00 Build 0)  -->
<svg version="1.1" id="Camada_1" xmlns="http://www.w3.org/2000/svg" xmlns:xlink="http://www.w3.org/1999/xlink" x="0px" y="0px"
	 viewBox="0 0 32 32" style="enable-background:new 0 0 32 32;" xml:space="preserve">
<style type="text/css">
	.st0{fill:#23C6A3;}
</style>
<g>
	<g id="Grupo_34" transform="translate(6.344 4.34)">
		<g id="Grupo_32" transform="translate(0.11)">
			<path id="Caminho_27" class="st0" d="M5.5,0C2.4,0,0,2.4,0,5.5s2.4,5.5,5.5,5.5c3,0,5.5-2.4,5.5-5.5c0,0,0,0,0,0
				C10.9,2.5,8.5,0,5.5,0z M7,7.6C6.8,7.9,6.5,8.1,6.1,8.2C6,8.2,5.9,8.4,5.9,8.5c0,0,0,0,0,0c0,0.2,0,0.3,0,0.5
				c0,0.1-0.1,0.2-0.2,0.2c0,0,0,0-0.1,0c-0.2,0-0.4,0-0.5,0C5,9.2,4.9,9.2,4.9,9c0,0,0,0,0,0c0-0.1,0-0.2,0-0.4
				c0-0.3,0-0.3-0.3-0.3C4.3,8.3,4,8.2,3.7,8.1C3.5,7.9,3.5,7.9,3.5,7.6c0-0.2,0.1-0.4,0.2-0.5C3.8,6.9,3.8,6.9,4,7
				c0.3,0.2,0.7,0.3,1,0.3c0.2,0,0.5,0,0.7-0.1C6,7.1,6.2,6.8,6.1,6.5c0-0.1-0.1-0.2-0.2-0.3C5.7,6.2,5.6,6.1,5.5,6
				C5.1,5.9,4.8,5.7,4.4,5.6C3.9,5.3,3.5,4.7,3.6,4.1c0-0.7,0.5-1.3,1.2-1.5C5,2.5,5,2.6,5,2.3V2c0-0.2,0-0.3,0.3-0.3h0.2
				c0.5,0,0.5,0,0.5,0.5c0,0.3,0,0.3,0.3,0.4c0.3,0,0.5,0.1,0.7,0.2c0.1,0,0.2,0.2,0.1,0.3c0,0,0,0,0,0C7.1,3.3,7,3.5,7,3.7
				S6.9,3.9,6.7,3.8C6.3,3.6,5.9,3.5,5.5,3.6c-0.1,0-0.2,0-0.3,0.1C5,3.7,4.8,4,4.9,4.2c0,0.1,0.1,0.2,0.2,0.2
				c0.2,0.1,0.3,0.2,0.5,0.3C5.9,4.8,6.2,5,6.5,5.1c0.8,0.4,1.1,1.4,0.7,2.2C7.2,7.5,7.1,7.5,7,7.6L7,7.6z"/>
		</g>
		<g id="Grupo_33" transform="translate(0 5.006)">
			<path id="Caminho_28" class="st0" d="M14.9,7.4c-0.4,0-0.8-0.3-0.8-0.8s0.3-0.8,0.8-0.8c0.4,0,0.8,0.3,0.8,0.8
				C15.7,7.1,15.4,7.4,14.9,7.4C14.9,7.4,14.9,7.4,14.9,7.4z M18.9,7h-0.5c-0.5-1.4-1.4-2.6-2.5-3.5c0,0,0,0,0-0.1c0,0,0,0,0,0
				c-0.2-0.7,0-1.4,0.4-2c0.3-0.4,0.1-1-0.3-1.2C15.8,0,15.6,0,15.4,0c-0.9,0.1-1.8,0.5-2.5,1c-0.4,0.4-0.7,0.8-0.8,1.3
				c-0.4,1.5-1.2,2.8-2.4,3.8c-2.5,2-6,2-8.5,0.1C1,6.1,0.8,6.2,0.7,6.3c0,0,0,0,0,0.1C0,7.9-0.2,9.6,0.2,11.2c0,0,0,0,0,0.1
				c0.1,0.6,0.3,1.1,0.6,1.6c0.4,0.9,0.9,1.7,1.6,2.4c0.7,0.7,1.1,1.6,1.1,2.6v0.3c0,0,0,0,0,0c0,0.4,0.4,0.8,0.8,0.8h3.1
				c0.5,0,0.8-0.4,0.8-0.8v-0.4c0.4,0,0.7,0.1,1.1,0.1c0.3,0,0.5,0,0.8,0v0.4c0,0.5,0.4,0.8,0.8,0.8h3.2c0.5,0,0.8-0.4,0.8-0.8v-0.8
				c0-0.7,0.4-1.4,1-1.9l0.1-0.1l0,0c0,0,0,0,0,0c1.1-0.9,1.9-2.1,2.3-3.4h0.4c0.7,0,1.3-0.6,1.3-1.3V8.2C20.1,7.5,19.6,7,18.9,7z"
				/>
		</g>
	</g>
</g>
</svg>
