<?xml version="1.0" encoding="utf-8"?>
<!-- Generator: Adobe Illustrator 23.0.1, SVG Export Plug-In . SVG Version: 6.00 Build 0)  -->
<svg version="1.1" id="Camada_1" xmlns="http://www.w3.org/2000/svg" xmlns:xlink="http://www.w3.org/1999/xlink" x="0px" y="0px"
	 viewBox="0 0 86.8 116.3" style="enable-background:new 0 0 86.8 116.3;" xml:space="preserve">
<style type="text/css">
	.st0{display:none;}
	.st1{display:inline;fill:#FFFFFF;}
	.st2{fill:none;}
	.st3{clip-path:url(#SVGID_2_);fill:#009982;}
	.st4{clip-path:url(#SVGID_4_);fill:#4A4A49;}
	.st5{clip-path:url(#SVGID_6_);}
	.st6{clip-path:url(#SVGID_8_);fill:#4A4A49;}
	.st7{clip-path:url(#SVGID_10_);fill:#706F6F;}
	.st8{clip-path:url(#SVGID_12_);fill:#00ADB1;}
	.st9{clip-path:url(#SVGID_14_);fill:#FFFFFF;}
	.st10{clip-path:url(#SVGID_16_);fill:#4A4A49;}
	.st11{clip-path:url(#SVGID_18_);fill:#706F6F;}
	.st12{clip-path:url(#SVGID_20_);fill:#4A4A49;}
	.st13{clip-path:url(#SVGID_22_);fill:#706F6F;}
</style>
<g id="back" class="st0">
	<rect x="-136.2" y="-171.7" class="st1" width="515" height="365"/>
</g>
<rect x="1.2" y="81.7" class="st2" width="84.5" height="8.1"/>
<g id="XMLID_7_">
	<g>
		<g>
			<g>
				<path d="M4.4,78.5h2.1v4.6H8l2.7-4.6h2.2l-3.3,5.4l0,0l3.4,5.9h-2.3l-2.8-4.9H6.4v4.9H4.3L4.4,78.5L4.4,78.5z"/>
				<path d="M18.3,84.7h0.3v-0.1c0-1.1-0.7-1.4-1.6-1.4c-1.2,0-2.2,0.8-2.2,0.8L14,82.5c0,0,1.3-1,3.2-1c2.1,0,3.4,1.2,3.4,3.2v5.1
					h-1.9v-0.7c0-0.3,0-0.6,0-0.6l0,0c0,0-0.6,1.4-2.5,1.4c-1.5,0-2.8-0.9-2.8-2.5C13.5,84.9,17,84.7,18.3,84.7z M16.8,88.4
					c1.1,0,1.8-1.1,1.8-2.1v-0.2h-0.4c-1,0-2.7,0.1-2.7,1.3C15.6,87.9,16,88.4,16.8,88.4z"/>
				<path d="M22.9,87.4c0,0,0.9,0.9,2.2,0.9c0.6,0,1.1-0.3,1.1-0.7c0-1.2-4-1.1-4-3.7c0-1.5,1.4-2.4,3.1-2.4c1.8,0,2.7,0.9,2.7,0.9
					l-0.8,1.5c0,0-0.8-0.7-2-0.7c-0.5,0-1,0.2-1,0.7c0,1.1,4,1,4,3.6c0,1.4-1.2,2.4-3.1,2.4c-2,0-3.2-1.2-3.2-1.2L22.9,87.4z"/>
				<path d="M29.8,81.7h1.9v0.6c0,0.3,0,0.6,0,0.6l0,0c0,0,0.7-1.3,2.6-1.3c2.2,0,3.6,1.7,3.6,4.3s-1.6,4.3-3.7,4.3
					c-1.6,0-2.3-1.1-2.3-1.1l0,0c0,0,0,0.3,0,0.7v3.4h-2L29.8,81.7L29.8,81.7z M33.8,88.3c1.1,0,2-0.9,2-2.5c0-1.5-0.8-2.6-2-2.6
					c-1.1,0-2,0.8-2,2.6C31.8,87.1,32.5,88.3,33.8,88.3z"/>
				<path d="M43.2,81.5c2.3,0,3.6,1.7,3.6,3.9c0,0.2,0,0.8,0,0.8h-5.6c0.1,1.4,1.2,2.2,2.4,2.2c1.3,0,2.3-0.9,2.3-0.9l0.8,1.5
					c0,0-1.2,1.2-3.3,1.2c-2.7,0-4.4-1.9-4.4-4.3C39,83.2,40.7,81.5,43.2,81.5z M44.7,84.7c0-1.1-0.7-1.7-1.6-1.7
					c-1,0-1.8,0.6-1.9,1.7H44.7z"/>
				<path d="M48.4,81.7h1.9v1.4c0,0.3,0,0.6,0,0.6l0,0c0.4-1.2,1.3-2.1,2.6-2.1c0.2,0,0.4,0,0.4,0v2c0,0-0.2,0-0.5,0
					c-0.9,0-1.8,0.5-2.2,1.7c-0.1,0.4-0.2,0.8-0.2,1.3v3.2h-2C48.4,89.8,48.4,81.7,48.4,81.7z"/>
				<path d="M54.9,87.4c0,0,0.9,0.9,2.2,0.9c0.6,0,1.1-0.3,1.1-0.7c0-1.2-4-1.1-4-3.7c0-1.5,1.4-2.4,3.1-2.4c1.8,0,2.7,0.9,2.7,0.9
					l-0.8,1.5c0,0-0.8-0.7-2-0.7c-0.5,0-1,0.2-1,0.7c0,1.1,4,1,4,3.6c0,1.4-1.2,2.4-3.1,2.4c-2,0-3.2-1.2-3.2-1.2L54.9,87.4z"/>
				<path d="M61.9,78.5h2v6.1h1l2-2.9h2.3l-2.6,3.6l0,0l2.9,4.5h-2.3L65,86.2h-1.1v3.6h-2C61.9,89.8,61.9,78.5,61.9,78.5z"/>
				<path d="M70.6,91.1c0,0,0.4,0.3,0.9,0.3c0.6,0,1.1-0.3,1.4-1.1l0.3-0.7l-3.4-8h2.3l1.7,4.7c0.2,0.4,0.3,1.1,0.3,1.1l0,0
					c0,0,0.1-0.6,0.3-1.1l1.6-4.7h2.2L74.6,91c-0.6,1.5-1.7,2.1-2.9,2.1c-1,0-1.7-0.5-1.7-0.5L70.6,91.1z"/>
				<path d="M81.4,80.9c0.9,0,1.7,0.7,1.7,1.7c0,0.9-0.7,1.7-1.7,1.7c-0.9,0-1.6-0.7-1.6-1.7C79.7,81.7,80.5,80.9,81.4,80.9z
					 M81.4,84c0.8,0,1.4-0.6,1.4-1.4s-0.6-1.4-1.4-1.4S80,81.8,80,82.6S80.6,84,81.4,84z M80.8,81.7h0.6c0.3,0,0.5,0.2,0.5,0.5
					s-0.2,0.4-0.3,0.5l0,0c0,0,0,0,0.1,0.1l0.3,0.7h-0.3l-0.4-0.7H81v0.7h-0.3v-1.8H80.8z M81.4,82.6c0.2,0,0.3-0.1,0.3-0.3
					S81.6,82,81.4,82h-0.3v0.6H81.4z"/>
				<path d="M10.9,104.5h-4l-1,2.9H3.8l4-11.3H10l4,11.3h-2.1L10.9,104.5z M8.9,98.1c0,0-0.3,1.1-0.5,1.8l-1,3h3l-1-3
					C9.2,99.2,9,98.1,8.9,98.1L8.9,98.1z"/>
				<path d="M15.1,99.3H17v0.9c0,0.3,0,0.6,0,0.6l0,0c0.4-0.7,1.2-1.7,2.9-1.7c1.8,0,2.8,0.9,2.8,3.1v5.2h-2v-4.8
					c0-1-0.3-1.7-1.3-1.7c-1.1,0-1.9,0.7-2.2,1.7c-0.1,0.3-0.1,0.7-0.1,1.1v3.7h-2C15.1,107.4,15.1,99.3,15.1,99.3z"/>
				<path d="M25,101h-1.1v-1.6H25v-2.3h2v2.3h1.9v1.6H27v3.2c0,1.3,1.1,1.5,1.6,1.5c0.2,0,0.4,0,0.4,0v1.8c0,0-0.2,0-0.6,0
					c-1.1,0-3.4-0.3-3.4-3.1V101z"/>
				<path d="M30.5,96.1h2v1.8h-2V96.1z M30.5,99.3h2v8.1h-2V99.3z"/>
				<path d="M34.7,102h4.8v1.8h-4.8V102z"/>
				<path d="M40,96.1h2.2l2.5,7.4c0.2,0.7,0.4,1.7,0.4,1.7l0,0c0,0,0.2-1,0.4-1.7l2.5-7.4h2.2l-4.1,11.3h-2L40,96.1z"/>
				<path d="M51.4,96.1h2v1.8h-2V96.1z M51.4,99.3h2v8.1h-2V99.3z"/>
				<path d="M55.5,99.3h1.9v1.4c0,0.3,0,0.6,0,0.6l0,0c0.4-1.2,1.3-2.1,2.6-2.1c0.2,0,0.4,0,0.4,0v2c0,0-0.2,0-0.5,0
					c-0.9,0-1.8,0.5-2.2,1.7c-0.1,0.4-0.2,0.8-0.2,1.3v3.2h-2C55.5,107.4,55.5,99.3,55.5,99.3z"/>
				<path d="M61.5,99.3h2v4.8c0,1,0.3,1.7,1.3,1.7c1.5,0,2.3-1.3,2.3-2.7v-3.7h2v8.1h-1.9v-0.9c0-0.3,0-0.6,0-0.6l0,0
					c-0.4,0.8-1.4,1.7-2.8,1.7c-1.7,0-2.8-0.9-2.8-3.1L61.5,99.3L61.5,99.3z"/>
				<path d="M71.5,105c0,0,0.9,0.9,2.2,0.9c0.6,0,1.1-0.3,1.1-0.7c0-1.2-4-1.1-4-3.7c0-1.5,1.4-2.4,3.1-2.4c1.8,0,2.7,0.9,2.7,0.9
					l-0.8,1.5c0,0-0.8-0.7-2-0.7c-0.5,0-1,0.2-1,0.7c0,1.1,4,1,4,3.6c0,1.4-1.2,2.4-3.1,2.4c-2,0-3.2-1.2-3.2-1.2L71.5,105z"/>
			</g>
		</g>
	</g>
</g>
<g id="Kaspersky__x03_Anti-APT_2_">
	<g>
		<g>
			<defs>
				<rect id="SVGID_1_" x="15.4" y="3.6" width="56" height="64"/>
			</defs>
			<clipPath id="SVGID_2_">
				<use xlink:href="#SVGID_1_"  style="overflow:visible;"/>
			</clipPath>
			<polygon class="st3" points="43.4,3.6 15.4,19.6 15.4,51.6 43.4,67.6 71.4,51.6 71.4,19.6 			"/>
		</g>
		<g>
			<defs>
				<rect id="SVGID_3_" x="15.4" y="3.6" width="56" height="64"/>
			</defs>
			<clipPath id="SVGID_4_">
				<use xlink:href="#SVGID_3_"  style="overflow:visible;"/>
			</clipPath>
			<rect x="29.4" y="19.6" class="st4" width="28" height="2"/>
		</g>
		<g>
			<defs>
				<rect id="SVGID_5_" x="15.4" y="3.6" width="56" height="64"/>
			</defs>
			<clipPath id="SVGID_6_">
				<use xlink:href="#SVGID_5_"  style="overflow:visible;"/>
			</clipPath>
			<g class="st5">
				<g>
					<defs>
						<rect id="SVGID_7_" x="15.4" y="3.6" width="56" height="64"/>
					</defs>
					<clipPath id="SVGID_8_">
						<use xlink:href="#SVGID_7_"  style="overflow:visible;"/>
					</clipPath>
					<path class="st6" d="M48.4,41.6c0-1.1-2.2-2-5-2s-5,0.9-5,2s2.2,2,5,2S48.4,42.7,48.4,41.6"/>
				</g>
				<g>
					<defs>
						<rect id="SVGID_9_" x="15.4" y="3.6" width="56" height="64"/>
					</defs>
					<clipPath id="SVGID_10_">
						<use xlink:href="#SVGID_9_"  style="overflow:visible;"/>
					</clipPath>
					<rect x="29.4" y="21.6" class="st7" width="28" height="20"/>
				</g>
				<g>
					<defs>
						<rect id="SVGID_11_" x="15.4" y="3.6" width="56" height="64"/>
					</defs>
					<clipPath id="SVGID_12_">
						<use xlink:href="#SVGID_11_"  style="overflow:visible;"/>
					</clipPath>
					<rect x="31.4" y="23.6" class="st8" width="24" height="16"/>
				</g>
				<g>
					<defs>
						<rect id="SVGID_13_" x="15.4" y="3.6" width="56" height="64"/>
					</defs>
					<clipPath id="SVGID_14_">
						<use xlink:href="#SVGID_13_"  style="overflow:visible;"/>
					</clipPath>
					<path class="st9" d="M43.4,25.6l-4.5,2.5v5c0,3.1,4.5,4.6,4.5,4.6s4.5-1.5,4.5-4.6v-5L43.4,25.6z M46.9,33.1
						c0,1.9-2.6,3.1-3.5,3.5c-0.9-0.4-3.5-1.6-3.5-3.5v-4.4l3.5-2l3.5,2V33.1z"/>
				</g>
				<g>
					<defs>
						<rect id="SVGID_15_" x="15.4" y="3.6" width="56" height="64"/>
					</defs>
					<clipPath id="SVGID_16_">
						<use xlink:href="#SVGID_15_"  style="overflow:visible;"/>
					</clipPath>
					<rect x="29.4" y="44.6" class="st10" width="21" height="6"/>
				</g>
				<g>
					<defs>
						<rect id="SVGID_17_" x="15.4" y="3.6" width="56" height="64"/>
					</defs>
					<clipPath id="SVGID_18_">
						<use xlink:href="#SVGID_17_"  style="overflow:visible;"/>
					</clipPath>
					<rect x="29.4" y="50.6" class="st11" width="21" height="1"/>
				</g>
				<g>
					<defs>
						<rect id="SVGID_19_" x="15.4" y="3.6" width="56" height="64"/>
					</defs>
					<clipPath id="SVGID_20_">
						<use xlink:href="#SVGID_19_"  style="overflow:visible;"/>
					</clipPath>
					<path class="st12" d="M57.4,49.4c0,1.2-1.1,2.2-2.5,2.2s-2.5-1-2.5-2.2v-2.6c0-1.2,1.1-2.2,2.5-2.2s2.5,1,2.5,2.2V49.4z"/>
				</g>
				<g>
					<defs>
						<rect id="SVGID_21_" x="15.4" y="3.6" width="56" height="64"/>
					</defs>
					<clipPath id="SVGID_22_">
						<use xlink:href="#SVGID_21_"  style="overflow:visible;"/>
					</clipPath>
					<path class="st13" d="M54.9,50.9c-1.4,0-2.5-1-2.5-2.2v0.7c0,1.2,1.1,2.2,2.5,2.2s2.5-1,2.5-2.2v-0.7
						C57.4,49.9,56.3,50.9,54.9,50.9"/>
				</g>
			</g>
		</g>
	</g>
</g>
</svg>
