<?xml version="1.0" encoding="utf-8"?>
<!-- Generator: Adobe Illustrator 23.0.1, SVG Export Plug-In . SVG Version: 6.00 Build 0)  -->
<svg version="1.1" id="Camada_1" xmlns="http://www.w3.org/2000/svg" xmlns:xlink="http://www.w3.org/1999/xlink" x="0px" y="0px"
	 viewBox="0 0 12.4 12.4" style="enable-background:new 0 0 12.4 12.4;" xml:space="preserve">
<style type="text/css">
	.st0{fill:#23C6A3;}
</style>
<path id="Caminho_4" class="st0" d="M6.5,0.8l1.6,3.3l3.7,0.5c0.2,0,0.3,0.2,0.3,0.4c0,0.1,0,0.1-0.1,0.2L9.3,7.8l0.6,3.7
	c0,0.2-0.1,0.3-0.3,0.4c-0.1,0-0.1,0-0.2,0l-3.3-1.7l-3.3,1.7c-0.2,0.1-0.3,0-0.4-0.1c0-0.1,0-0.1,0-0.2l0.6-3.7L0.4,5.2
	c-0.1-0.1-0.1-0.3,0-0.4c0,0,0.1-0.1,0.2-0.1l3.7-0.5l1.6-3.3C6,0.6,6.2,0.6,6.3,0.6C6.4,0.7,6.5,0.7,6.5,0.8z"/>
</svg>
